<svg xmlns="http://www.w3.org/2000/svg" width="256" height="256" fill="none" viewBox="0 0 256 256"><rect width="128" height="96" x="24" y="136" fill="#5B5F81" rx="16"/><g style="mix-blend-mode:multiply" opacity=".24"><rect width="128" height="96" x="24" y="136" fill="#fff" rx="16"/></g><path fill="#8185AB" d="M24 152C24 143.163 31.1634 136 40 136H136C144.837 136 152 143.163 152 152V156H24V152Z"/><path fill="#787893" d="M40 179C40 177.343 41.3431 176 43 176H85C86.6569 176 88 177.343 88 179C88 180.657 86.6569 182 85 182H43C41.3431 182 40 180.657 40 179Z"/><path fill="#787893" d="M40 193C40 191.343 41.3431 190 43 190H117C118.657 190 120 191.343 120 193C120 194.657 118.657 196 117 196H43C41.3431 196 40 194.657 40 193Z"/><path fill="#787893" d="M40 207C40 205.343 41.3431 204 43 204H53C54.6569 204 56 205.343 56 207C56 208.657 54.6569 210 53 210H43C41.3431 210 40 208.657 40 207Z"/><circle cx="39" cy="146" r="3" fill="#FA9F94"/><circle cx="49" cy="146" r="3" fill="#FDCF90"/><circle cx="59" cy="146" r="3" fill="#E5E1EC"/><rect width="86" height="176" x="85" y="54" fill="#C1B2EA" stroke="#7964C3" stroke-width="4" rx="14"/><path stroke="#AA9BD9" stroke-linecap="round" d="M91 72V207C91 215.284 97.7157 222 106 222H110M165 69V94M165 172V144.5"/><path fill="#775BC1" d="M110.5 56H146.5V58C146.5 61.3137 143.814 64 140.5 64H116.5C113.186 64 110.5 61.3137 110.5 58V56Z"/><circle cx="128" cy="212" r="8.125" stroke="#F0EBFF" stroke-width="3.75"/><rect width="107" height="25" x="102.5" y="110.5" fill="#5D34F2" fill-opacity=".16" rx="7.5"/><rect width="8" height="8" x="118" y="119" fill="#E6DEFF" rx="2"/><rect width="8" height="8" x="132" y="119" fill="#E6DEFF" rx="2"/><rect width="8" height="8" x="146" y="119" fill="#E6DEFF" rx="2"/><rect width="8" height="8" x="160" y="119" fill="#E6DEFF" rx="2"/><rect width="8" height="8" x="174" y="119" fill="#9882D0" rx="2"/><rect width="8" height="8" x="188" y="119" fill="#9882D0" rx="2"/><rect width="107" height="25" x="102.5" y="110.5" stroke="#CBBBF4" rx="7.5"/><path stroke="#AF9EFF" stroke-linecap="round" d="M192 232C194.213 232 196.385 231.82 198.5 231.475C200.205 231.196 201.874 230.809 203.5 230.322M181 153.532C184.495 152.534 188.185 152 192 152C214.091 152 232 169.909 232 192C232 197.496 230.892 202.733 228.886 207.5C227.768 210.158 226.37 212.671 224.73 215C223.598 216.608 222.351 218.129 221 219.55C220.014 220.588 218.973 221.573 217.881 222.5C216.649 223.546 215.353 224.519 214 225.412M158.923 169.5C157.945 170.936 157.057 172.439 156.269 174C153.538 179.41 152 185.526 152 192C152 201.87 155.575 210.905 161.5 217.881C163.158 219.833 165 221.624 167 223.227"/><circle cx="192" cy="192" r="30" fill="#E5E5E5" opacity=".2"/><path fill="#FA9F94" fill-rule="evenodd" d="M192 162V192H162C162 175.431 175.431 162 192 162Z" clip-rule="evenodd"/><path fill="#BE9FF3" fill-rule="evenodd" d="M192 222V192H222C222 208.569 208.569 222 192 222Z" clip-rule="evenodd"/><path fill="#FDCF90" fill-rule="evenodd" d="M192 162V192H222C222 175.431 208.569 162 192 162Z" clip-rule="evenodd"/><path fill="#FCCCF1" fill-rule="evenodd" d="M192 222V192H162C162 208.569 175.431 222 192 222Z" clip-rule="evenodd"/><rect width="24" height="24" x="116" y="76" fill="#F0EBFF" rx="8"/><circle cx="128" cy="83" r="4" fill="#F2CE41"/><path fill="#775BC1" d="M122 92C122 89.7909 123.791 88 126 88H130C132.209 88 134 89.7909 134 92V94C134 95.1046 133.105 96 132 96H124C122.895 96 122 95.1046 122 94V92Z"/><rect width="8" height="8" x="32.016" y="38.703" fill="#8185AB" transform="rotate(24.4506 32.0156 38.7031)"/><rect width="8" height="8" x="91.359" y="24.571" fill="#736A8D" transform="rotate(-40.65 91.3594 24.5709)"/><rect width="8" height="8" x="220.613" y="89.516" fill="#5B5F81" transform="rotate(30.813 220.613 89.5157)"/><path fill="#4E5075" fill-rule="evenodd" d="M212.957 21.1043C212.957 21.0467 213.004 21 213.062 21H214.939C214.997 21 215.043 21.0467 215.043 21.1043V24.4087L217.905 22.7565C217.955 22.7277 218.019 22.7448 218.047 22.7947L218.986 24.4207C219.015 24.4706 218.998 24.5344 218.948 24.5632L216.086 26.2154L218.948 27.8675C218.998 27.8964 219.015 27.9601 218.986 28.01L218.047 29.636C218.018 29.6859 217.955 29.703 217.905 29.6742L215.043 28.0222V31.3264C215.043 31.384 214.997 31.4307 214.939 31.4307H213.062C213.004 31.4307 212.957 31.384 212.957 31.3264V28.022L210.095 29.6742C210.046 29.703 209.982 29.6859 209.953 29.636L209.014 28.01C208.985 27.9601 209.002 27.8964 209.052 27.8675L211.914 26.2154L209.052 24.5632C209.002 24.5344 208.985 24.4706 209.014 24.4207L209.953 22.7947C209.982 22.7448 210.045 22.7277 210.095 22.7565L212.957 24.4089V21.1043Z" clip-rule="evenodd"/><path fill="#71AB74" d="M198.969 48.912C199.026 48.8892 199.086 48.9369 199.078 48.9979L197.784 57.8646C197.776 57.9255 197.704 57.954 197.656 57.9158L190.623 52.3627C190.575 52.3245 190.586 52.2483 190.643 52.2255L198.969 48.912Z"/><path stroke="#655D82" stroke-linecap="round" stroke-linejoin="round" stroke-width="2" d="M35.7451 83.0107L36.7284 85.6627C37.2715 87.1273 38.8991 87.8744 40.3638 87.3313V87.3313C41.8284 86.7883 43.456 87.5353 43.9991 89V89C44.5422 90.4647 46.1698 91.2117 47.6344 90.6687V90.6687C49.0991 90.1256 50.7267 90.8727 51.2697 92.3373L52.2531 94.9893"/><path stroke="#6E5AA4" stroke-linecap="round" stroke-linejoin="round" stroke-width="2" d="M205.425 72.4582L208.253 72.4914C209.815 72.5098 211.096 71.2585 211.115 69.6965V69.6965C211.133 68.1345 212.414 66.8832 213.976 66.9015V66.9015C215.538 66.9199 216.819 65.6686 216.838 64.1066L216.871 61.2784"/><path stroke="#80A181" stroke-linecap="round" stroke-linejoin="round" stroke-width="2" d="M71.5964 34.3086L72.1129 31.5277C72.3982 29.9919 71.3844 28.5156 69.8486 28.2303V28.2303C68.3127 27.9451 67.2989 26.4688 67.5842 24.933V24.933C67.8694 23.3971 66.8557 21.9208 65.3198 21.6356L62.539 21.1191"/><rect width="42" height="4" x="107" y="144" fill="#AF9FDB" rx="2"/><rect width="24" height="4" x="107" y="152" fill="#AF9FDB" rx="2"/></svg>