<svg xmlns="http://www.w3.org/2000/svg" width="40" height="40" fill="none" viewBox="0 0 40 40"><rect width="40" height="40" fill="#3A3B59" rx="8"/><rect width="18" height="14" x="17" y="5" fill="url(#paint0_linear_270_11727)" rx="2"/><rect width="18" height="1" x="17" y="9" fill="#D361E7"/><rect width="6" height="1" x="27" y="7" fill="#B545CA" rx=".5"/><rect width="1" height="1" x="19" y="7" fill="#F4E560" rx=".5"/><rect width="1" height="1" x="21" y="7" fill="#7958FF" rx=".5"/><rect width="1" height="1" x="23" y="7" fill="#F4E560" rx=".5"/><rect width="6" height="1" x="27" y="12" fill="#B545CA" rx=".5"/><rect width="1" height="1" x="19" y="12" fill="#F4E560" rx=".5"/><rect width="1" height="1" x="21" y="12" fill="#F4E560" rx=".5"/><rect width="6" height="1" x="27" y="17" fill="#B545CA" rx=".5"/><rect width="1" height="1" x="19" y="17" fill="#F4E560" rx=".5"/><rect width="1" height="1" x="21" y="17" fill="#F4E560" rx=".5"/><rect width="1" height="1" x="23" y="17" fill="#7958FF" rx=".5"/><rect width="18" height="1" x="17" y="14" fill="#D361E7"/><rect width="18" height="14" x="5" y="21" fill="url(#paint1_linear_270_11727)" rx="2"/><path fill="#6B4DD6" d="M5 24H23V23C23 21.8954 22.1046 21 21 21H7C5.89543 21 5 21.8954 5 23V24Z"/><rect width="6" height="1" x="7" y="26" fill="#D3A4FB" rx=".5"/><rect width="12" height="1" x="7" y="29" fill="#D3A4FB" rx=".5"/><path stroke="#D4CFF3" stroke-width="2" d="M20 28C24.4183 28 28 24.4183 28 20"/><path stroke="#D4CFF3" stroke-width="2" d="M12 20C12 15.5817 15.5817 12 20 12"/><defs><linearGradient id="paint0_linear_270_11727" x1="12.5" x2="36.414" y1="14.333" y2="10.979" gradientUnits="userSpaceOnUse"><stop stop-color="#E4A3FB"/><stop offset="1" stop-color="#EC78FF"/></linearGradient><linearGradient id="paint1_linear_270_11727" x1="3.521" x2="21.363" y1="29.021" y2="20.551" gradientUnits="userSpaceOnUse"><stop stop-color="#6B56EF"/><stop offset="1" stop-color="#D57CFF"/></linearGradient></defs></svg>